<?xml version="1.0" standalone="no"?>
<!DOCTYPE svg PUBLIC "-//W3C//DTD SVG 20010904//EN"
 "http://www.w3.org/TR/2001/REC-SVG-20010904/DTD/svg10.dtd">
<svg version="1.0" xmlns="http://www.w3.org/2000/svg"
 width="1024.000000pt" height="1024.000000pt" viewBox="0 0 1024.000000 1024.000000"
 preserveAspectRatio="xMidYMid meet">
<metadata>
Created by potrace 1.14, written by Peter Selinger 2001-2017
</metadata>
<g transform="translate(0.000000,1024.000000) scale(0.100000,-0.100000)"
fill="#000000" stroke="none">
<path d="M4848 7909 c-524 -35 -1049 -205 -1418 -457 -497 -340 -742 -775
-744 -1322 0 -172 12 -261 55 -392 52 -160 124 -281 242 -405 121 -127 300
-249 487 -332 30 -14 58 -28 62 -31 9 -7 6 -15 -618 -1472 -261 -609 -474
-1112 -474 -1118 0 -5 3 -10 8 -10 4 0 106 -7 227 -15 1299 -87 2277 -6 3070
252 243 79 547 213 711 313 38 24 84 52 103 62 55 31 226 155 330 239 209 167
493 488 655 739 109 168 276 477 276 510 0 9 4 20 9 25 24 25 97 229 144 405
66 239 90 530 66 776 -60 615 -370 1144 -929 1588 -97 77 -353 232 -500 303
-533 259 -1170 382 -1762 342z m329 -1005 c419 -56 838 -268 1113 -562 190
-202 315 -453 349 -696 36 -260 -28 -643 -154 -921 -137 -302 -397 -587 -719
-787 -383 -238 -863 -391 -1423 -452 -135 -15 -233 -20 -233 -12 0 3 77 189
155 376 24 58 108 258 186 445 78 187 151 362 162 389 l21 49 98 -7 c54 -3
186 -9 293 -13 225 -7 209 3 174 -117 -27 -93 -111 -265 -193 -396 -36 -57
-66 -108 -66 -112 0 -9 42 -11 64 -2 8 3 77 74 152 157 76 84 180 197 231 253
l93 101 53 -18 c28 -10 64 -18 78 -19 24 0 27 5 34 46 7 50 -1 63 -40 64 -46
1 -44 15 14 79 l57 64 150 -19 c238 -30 389 -23 449 22 20 15 19 16 -18 48
-62 55 -210 90 -463 112 -45 3 -86 9 -91 13 -14 9 -93 151 -85 152 4 1 24 0
44 -1 32 -1 38 2 43 23 4 14 5 38 3 53 l-3 29 -76 -1 c-84 -1 -70 -12 -138
106 -24 41 -29 45 -69 47 -39 2 -42 0 -36 -21 7 -28 -30 -76 -59 -76 -20 -1
-20 -2 -4 -11 9 -5 17 -17 17 -24 0 -8 6 -15 13 -15 8 0 7 -3 -3 -10 -10 -6
-20 -1 -35 20 -23 33 -37 38 -34 13 1 -10 1 -35 0 -55 l-1 -38 -55 0 c-36 0
-55 -4 -55 -12 0 -6 -10 -22 -22 -35 -42 -45 -106 -21 -118 45 -5 26 -10 28
-90 40 -47 7 -88 16 -91 20 -3 4 41 120 98 257 372 891 464 1117 459 1122 -3
3 -262 7 -575 8 -417 2 -573 0 -579 -9 -5 -6 -73 -162 -151 -346 -151 -352
-210 -489 -239 -554 l-18 -39 -51 62 c-138 171 -190 397 -130 570 36 104 71
156 166 252 100 100 199 164 349 226 309 128 637 166 999 117z m825 -2008 c-3
-5 2 -7 11 -3 22 8 176 -18 223 -38 39 -17 39 -17 14 -27 -60 -24 -345 8 -450
50 l-25 10 25 11 c30 13 210 10 202 -3z"/>
<path d="M5195 5698 c29 -90 58 -194 65 -231 7 -38 15 -65 19 -59 11 17 50 23
71 12 18 -10 20 -8 18 17 -2 36 11 75 23 68 5 -4 9 -11 9 -16 0 -6 -4 -8 -10
-4 -10 6 -6 -47 5 -65 3 -5 20 -10 37 -10 29 0 30 1 16 23 -8 12 -30 49 -48
82 -178 322 -193 345 -229 345 l-29 0 53 -162z"/>
<path d="M5298 5399 c-23 -13 -25 -74 -3 -83 21 -8 61 9 68 28 11 28 -11 66
-38 66 -5 -1 -18 -5 -27 -11z"/>
<path d="M5048 5182 c-11 -39 49 -77 77 -48 8 8 15 19 15 25 0 6 6 11 13 11
23 1 -17 18 -59 25 -35 5 -42 4 -46 -13z"/>
<path d="M9490 951 c-49 -16 -87 -41 -119 -76 -25 -29 -31 -44 -31 -81 0 -25
7 -58 15 -73 18 -36 89 -67 172 -76 58 -7 62 -9 52 -27 -16 -31 -6 -30 28 2
19 18 44 30 60 31 l28 1 -32 10 c-18 6 -33 17 -33 24 0 8 -3 14 -8 14 -4 0
-16 15 -26 34 -14 26 -16 38 -7 54 19 36 13 42 -44 42 -53 0 -55 -1 -70 -36
-19 -46 -20 -41 13 -57 54 -28 70 -29 77 -7 8 25 21 18 27 -15 6 -29 -2 -30
-67 -14 -93 23 -121 92 -56 136 64 43 169 24 231 -42 21 -22 25 -36 25 -85 -1
-47 -6 -64 -28 -94 -33 -43 -109 -84 -172 -93 -49 -6 -51 -4 -31 35 31 61 30
69 -11 75 -21 3 -45 8 -54 11 -12 6 -26 -18 -66 -114 l-51 -120 46 -2 c143 -6
264 12 340 51 85 43 153 138 167 234 21 138 -100 254 -272 263 -43 2 -89 0
-103 -5z"/>
<path d="M9311 333 c-1 -28 2 -33 22 -32 15 1 17 3 5 6 -9 2 -19 16 -21 31 -4
24 -4 24 -6 -5z"/>
<path d="M9364 345 c-3 -8 -4 -20 -1 -27 3 -7 6 -3 6 10 1 12 7 22 15 22 8 0
17 -10 19 -22 4 -20 4 -19 6 5 1 21 -3 27 -19 27 -11 0 -23 -7 -26 -15z"/>
<path d="M9420 328 c0 -21 3 -28 8 -20 5 7 17 10 28 7 18 -6 18 -6 2 8 -22 18
-23 31 -2 23 8 -3 12 -2 9 4 -3 6 -15 10 -26 10 -15 0 -19 -7 -19 -32z"/>
<path d="M9481 328 c1 -18 3 -25 6 -16 2 9 12 19 21 21 14 4 13 5 -3 7 l-20 1
20 9 c19 8 19 9 -2 9 -20 1 -23 -4 -22 -31z"/>
<path d="M9537 338 c-4 -12 -4 -24 -2 -27 3 -2 5 1 5 7 0 19 20 14 21 -5 0
-11 3 -13 6 -6 2 7 -2 22 -10 33 l-14 21 -6 -23z"/>
<path d="M9571 348 c0 -7 4 -22 9 -33 7 -17 9 -15 9 13 1 17 -3 32 -9 32 -5 0
-10 -6 -9 -12z"/>
<path d="M9620 336 c0 -31 6 -34 13 -6 3 11 1 23 -4 26 -5 3 -9 -6 -9 -20z"/>
<path d="M9651 333 c2 -24 2 -25 6 -5 2 12 8 22 13 22 5 0 6 -7 3 -17 -4 -11
-3 -14 5 -9 19 12 14 36 -8 36 -15 0 -20 -6 -19 -27z"/>
<path d="M9700 345 c0 -8 7 -15 15 -15 8 0 15 -5 15 -11 0 -6 -7 -8 -17 -4
-14 5 -15 3 -6 -6 16 -16 31 -4 31 26 0 18 -6 25 -19 25 -11 0 -19 -7 -19 -15z"/>
<path d="M9750 343 c0 -28 16 -47 34 -40 10 4 16 17 15 34 -1 21 -3 23 -6 8
-8 -34 -23 -41 -23 -12 0 15 -4 27 -10 27 -5 0 -10 -8 -10 -17z"/>
<path d="M9810 328 c0 -18 4 -28 8 -23 4 6 17 10 30 9 15 -1 22 4 22 17 0 22
-16 34 -24 17 -5 -10 -7 -10 -12 0 -11 23 -24 12 -24 -20z"/>
</g>
</svg>
